<svg width="131" height="68" viewBox="0 0 131 68" fill="none" xmlns="http://www.w3.org/2000/svg">
<path d="M2.34 5.89L3.21417 6.37565L3.21667 6.3711L2.34 5.89ZM6.09 2.08L6.58027 2.95158L6.58383 2.94956L6.09 2.08ZM18 2.68L18.5957 1.87676L18 2.68ZM21.57 8.08V9.08H22.8672L22.5371 7.82551L21.57 8.08ZM15.93 8.08L15.0275 8.51073L15.2992 9.08H15.93V8.08ZM14.13 6.07L13.6122 6.92556L13.622 6.93137L14.13 6.07ZM7.68 7.03L8.42666 7.69521L7.68 7.03ZM14.13 16.81L13.622 15.9486L13.6122 15.9545L14.13 16.81ZM15.93 14.8V13.8H15.2992L15.0275 14.3693L15.93 14.8ZM21.57 14.8L22.5371 15.0545L22.8672 13.8H21.57V14.8ZM18 20.2L18.5898 21.0076L18.5957 21.0032L18 20.2ZM6.09 20.8L5.59153 21.6669L5.59792 21.6706L5.60436 21.6742L6.09 20.8ZM2.34 16.99L3.21416 16.5044L2.34 16.99ZM1.99 11.44C1.99 9.50877 2.40639 7.82961 3.21416 6.37564L1.46584 5.40436C0.473605 7.19038 -0.01 9.21123 -0.01 11.44H1.99ZM3.21667 6.3711C4.02865 4.89149 5.14623 3.75822 6.58026 2.95157L5.59974 1.20842C3.83377 2.20178 2.45135 3.60851 1.46333 5.4089L3.21667 6.3711ZM6.58383 2.94956C8.03925 2.12302 9.69623 1.7 11.58 1.7V-0.300001C9.38377 -0.300001 7.38075 0.196973 5.59618 1.21044L6.58383 2.94956ZM11.58 1.7C13.8942 1.7 15.8184 2.30715 17.4043 3.48324L18.5957 1.87676C16.6216 0.412849 14.2658 -0.300001 11.58 -0.300001V1.7ZM17.4043 3.48324C18.9896 4.65884 20.0568 6.25922 20.6029 8.33449L22.5371 7.82551C21.8832 5.34078 20.5704 3.34116 18.5957 1.87676L17.4043 3.48324ZM21.57 7.08H15.93V9.08H21.57V7.08ZM16.8325 7.64927C16.3337 6.60414 15.6027 5.77757 14.638 5.20863L13.622 6.93137C14.2173 7.28242 14.6863 7.79586 15.0275 8.51073L16.8325 7.64927ZM14.6478 5.2145C13.7158 4.6504 12.6631 4.38 11.52 4.38V6.38C12.3369 6.38 13.0242 6.5696 13.6122 6.9255L14.6478 5.2145ZM11.52 4.38C9.67807 4.38 8.11806 5.03501 6.93334 6.36479L8.42666 7.69521C9.20194 6.82499 10.2019 6.38 11.52 6.38V4.38ZM6.93334 6.36479C5.7524 7.69034 5.21 9.41812 5.21 11.44H7.21C7.21 9.78188 7.6476 8.56966 8.42666 7.69521L6.93334 6.36479ZM5.21 11.44C5.21 13.4619 5.7524 15.1897 6.93334 16.5152L8.42666 15.1848C7.6476 14.3103 7.21 13.0981 7.21 11.44H5.21ZM6.93334 16.5152C8.11806 17.845 9.67807 18.5 11.52 18.5V16.5C10.2019 16.5 9.20194 16.055 8.42666 15.1848L6.93334 16.5152ZM11.52 18.5C12.6631 18.5 13.7158 18.2296 14.6478 17.6655L13.6122 15.9545C13.0242 16.3104 12.3369 16.5 11.52 16.5V18.5ZM14.638 17.6714C15.6027 17.1024 16.3337 16.2759 16.8325 15.2307L15.0275 14.3693C14.6863 15.0841 14.2173 15.5976 13.622 15.9486L14.638 17.6714ZM15.93 15.8H21.57V13.8H15.93V15.8ZM20.6029 14.5455C20.0568 16.6208 18.9896 18.2212 17.4043 19.3968L18.5957 21.0032C20.5704 19.5388 21.8832 17.5392 22.5371 15.0545L20.6029 14.5455ZM17.4102 19.3924C15.8239 20.551 13.8977 21.15 11.58 21.15V23.15C14.2624 23.15 16.6161 22.449 18.5898 21.0076L17.4102 19.3924ZM11.58 21.15C9.69241 21.15 8.03248 20.7352 6.57564 19.9258L5.60436 21.6742C7.38752 22.6648 9.38759 23.15 11.58 23.15V21.15ZM6.58847 19.9331C5.1467 19.1041 4.02628 17.9662 3.21416 16.5044L1.46584 17.4756C2.45372 19.2538 3.8333 20.6559 5.59153 21.6669L6.58847 19.9331ZM3.21416 16.5044C2.40639 15.0504 1.99 13.3712 1.99 11.44H-0.01C-0.01 13.6688 0.473605 15.6896 1.46584 17.4756L3.21416 16.5044ZM27.8916 21.19L27.4175 22.0705L27.4231 22.0735L27.8916 21.19ZM24.8016 18.19L23.9324 18.6847L23.9383 18.6947L24.8016 18.19ZM24.8316 9.1L25.6949 9.60471L25.6982 9.59896L24.8316 9.1ZM27.9516 6.07L28.4201 6.95346L27.9516 6.07ZM36.8316 6.07L36.3631 6.95346L36.8316 6.07ZM39.9516 9.1L39.0849 9.59898L39.0883 9.6047L39.9516 9.1ZM39.9216 18.19L39.0606 17.6813L39.0583 17.6853L39.9216 18.19ZM36.7716 21.19L36.3085 20.3036L36.3031 20.3065L36.7716 21.19ZM34.8216 16.72L34.1046 16.0229L34.0995 16.0281L34.0946 16.0334L34.8216 16.72ZM34.8516 10.54L34.1144 11.2157L34.1194 11.2212L34.1245 11.2266L34.8516 10.54ZM29.9016 10.54L30.6292 11.2261L30.6387 11.2157L29.9016 10.54ZM29.8716 16.72L29.1242 17.3844L29.1292 17.3901L29.1344 17.3957L29.8716 16.72ZM32.3316 21.24C30.8386 21.24 29.522 20.9227 28.3601 20.3065L27.4231 22.0735C28.9011 22.8573 30.5445 23.24 32.3316 23.24V21.24ZM28.3657 20.3095C27.2308 19.6985 26.3341 18.83 25.6649 17.6853L23.9383 18.6947C24.7891 20.15 25.9523 21.2815 27.4175 22.0705L28.3657 20.3095ZM25.6706 17.6953C25.0295 16.5691 24.6916 15.2251 24.6916 13.63H22.6916C22.6916 15.5149 23.0936 17.2109 23.9325 18.6847L25.6706 17.6953ZM24.6916 13.63C24.6916 12.0617 25.0365 10.7308 25.6949 9.6047L23.9683 8.5953C23.1066 10.0692 22.6916 11.7583 22.6916 13.63H24.6916ZM25.6982 9.59896C26.3662 8.43869 27.2697 7.56351 28.4201 6.95346L27.4831 5.18654C25.9934 5.97649 24.8169 7.12131 23.9649 8.60104L25.6982 9.59896ZM28.4201 6.95346C29.582 6.33727 30.8986 6.02 32.3916 6.02V4.02C30.6045 4.02 28.9611 4.40273 27.4831 5.18654L28.4201 6.95346ZM32.3916 6.02C33.8845 6.02 35.2011 6.33727 36.3631 6.95346L37.3001 5.18654C35.822 4.40273 34.1786 4.02 32.3916 4.02V6.02ZM36.3631 6.95346C37.5134 7.56351 38.4169 8.43869 39.0849 9.59896L40.8182 8.60103C39.9662 7.12131 38.7897 5.97649 37.3001 5.18654L36.3631 6.95346ZM39.0883 9.6047C39.7466 10.7308 40.0916 12.0617 40.0916 13.63H42.0916C42.0916 11.7583 41.6765 10.0692 40.8149 8.5953L39.0883 9.6047ZM40.0916 13.63C40.0916 15.1933 39.7389 16.5335 39.0606 17.6813L40.7825 18.6987C41.6643 17.2065 42.0916 15.5067 42.0916 13.63H40.0916ZM39.0583 17.6853C38.3936 18.8223 37.4826 19.6903 36.3085 20.3037L37.2346 22.0763C38.7405 21.2897 39.9296 20.1577 40.7849 18.6947L39.0583 17.6853ZM36.3031 20.3065C35.1411 20.9227 33.8245 21.24 32.3316 21.24V23.24C34.1186 23.24 35.762 22.8573 37.2401 22.0735L36.3031 20.3065ZM32.3316 18.8C33.59 18.8 34.6819 18.3242 35.5486 17.4066L34.0946 16.0334C33.6012 16.5558 33.0332 16.8 32.3316 16.8V18.8ZM35.5386 17.4171C36.4741 16.4548 36.8716 15.1408 36.8716 13.63H34.8716C34.8716 14.7992 34.569 15.5452 34.1046 16.0229L35.5386 17.4171ZM36.8716 13.63C36.8716 12.1265 36.4882 10.8165 35.5786 9.85338L34.1245 11.2266C34.575 11.7035 34.8716 12.4535 34.8716 13.63H36.8716ZM35.5887 9.86427C34.7386 8.93686 33.6508 8.46 32.3916 8.46V10.46C33.0923 10.46 33.6445 10.7031 34.1144 11.2157L35.5887 9.86427ZM32.3916 8.46C31.1188 8.46 30.0189 8.93212 29.1644 9.86427L30.6387 11.2157C31.1042 10.7079 31.6643 10.46 32.3916 10.46V8.46ZM29.174 9.85399C28.2779 10.8044 27.9116 12.1207 27.9116 13.63H29.9116C29.9116 12.4193 30.2052 11.6756 30.6292 11.226L29.174 9.85399ZM27.9116 13.63C27.9116 15.1192 28.2674 16.4206 29.1242 17.3844L30.619 16.0556C30.1957 15.5794 29.9116 14.8208 29.9116 13.63H27.9116ZM29.1344 17.3957C29.9845 18.3231 31.0723 18.8 32.3316 18.8V16.8C31.6308 16.8 31.0786 16.5569 30.6087 16.0443L29.1344 17.3957ZM58.6931 7L57.9521 7.67152L57.9576 7.67758L57.9632 7.68356L58.6931 7ZM60.4631 22V23H61.4631V22H60.4631ZM55.3631 22H54.3631V23H55.3631V22ZM54.4931 10.3L53.7629 10.9832H53.7629L54.4931 10.3ZM49.8131 10.3L50.5434 10.9832L49.8131 10.3ZM48.9431 22V23H49.9431V22H48.9431ZM43.8131 22H42.8131V23H43.8131V22ZM43.8131 5.26V4.26H42.8131V5.26H43.8131ZM48.9431 5.26H49.9431V4.26H48.9431V5.26ZM48.9431 7.48H47.9431V10.6424L49.7613 8.05494L48.9431 7.48ZM51.0431 5.74L51.4739 6.64248L51.4821 6.63853L51.4903 6.63443L51.0431 5.74ZM54.0131 6.08C55.7329 6.08 57.0082 6.62994 57.9521 7.67152L59.4341 6.32848C58.058 4.81006 56.2134 4.08 54.0131 4.08V6.08ZM57.9632 7.68356C58.9243 8.70981 59.4631 10.1787 59.4631 12.22H61.4631C61.4631 9.82134 60.8219 7.81019 59.423 6.31644L57.9632 7.68356ZM59.4631 12.22V22H61.4631V12.22H59.4631ZM60.4631 21H55.3631V23H60.4631V21ZM56.3631 22V12.91H54.3631V22H56.3631ZM56.3631 12.91C56.3631 11.6194 56.0262 10.475 55.2234 9.61684L53.7629 10.9832C54.1201 11.365 54.3631 11.9606 54.3631 12.91H56.3631ZM55.2234 9.61684C54.4246 8.76293 53.3631 8.37 52.1531 8.37V10.37C52.9031 10.37 53.4017 10.5971 53.7629 10.9832L55.2234 9.61684ZM52.1531 8.37C50.9431 8.37 49.8817 8.76293 49.0829 9.61684L50.5434 10.9832C50.9046 10.5971 51.4031 10.37 52.1531 10.37V8.37ZM49.0829 9.61684C48.2801 10.475 47.9431 11.6194 47.9431 12.91H49.9431C49.9431 11.9606 50.1862 11.365 50.5434 10.9832L49.0829 9.61684ZM47.9431 12.91V22H49.9431V12.91H47.9431ZM48.9431 21H43.8131V23H48.9431V21ZM44.8131 22V5.26H42.8131V22H44.8131ZM43.8131 6.26H48.9431V4.26H43.8131V6.26ZM47.9431 5.26V7.48H49.9431V5.26H47.9431ZM49.7613 8.05494C50.1748 7.46653 50.7365 6.99439 51.4739 6.64248L50.6124 4.83752C49.5897 5.32561 48.7514 6.01347 48.1249 6.90505L49.7613 8.05494ZM51.4903 6.63443C52.2158 6.27169 53.0498 6.08 54.0131 6.08V4.08C52.7764 4.08 51.6304 4.32831 50.5959 4.84557L51.4903 6.63443ZM78.908 7L78.167 7.67152L78.1725 7.67758L78.1781 7.68356L78.908 7ZM80.678 22V23H81.678V22H80.678ZM75.578 22H74.578V23H75.578V22ZM74.708 10.3L73.9777 10.9832L74.708 10.3ZM70.028 10.3L70.7582 10.9832L70.028 10.3ZM69.158 22V23H70.158V22H69.158ZM64.028 22H63.028V23H64.028V22ZM64.028 5.26V4.26H63.028V5.26H64.028ZM69.158 5.26H70.158V4.26H69.158V5.26ZM69.158 7.48H68.158V10.6424L69.9762 8.05494L69.158 7.48ZM71.258 5.74L71.6887 6.64248L71.697 6.63853L71.7052 6.63443L71.258 5.74ZM74.228 6.08C75.9477 6.08 77.2231 6.62994 78.167 7.67152L79.649 6.32848C78.2729 4.81006 76.4282 4.08 74.228 4.08V6.08ZM78.1781 7.68356C79.1392 8.70981 79.678 10.1787 79.678 12.22H81.678C81.678 9.82134 81.0368 7.81019 79.6379 6.31644L78.1781 7.68356ZM79.678 12.22V22H81.678V12.22H79.678ZM80.678 21H75.578V23H80.678V21ZM76.578 22V12.91H74.578V22H76.578ZM76.578 12.91C76.578 11.6194 76.241 10.475 75.4382 9.61684L73.9777 10.9832C74.3349 11.365 74.578 11.9606 74.578 12.91H76.578ZM75.4382 9.61684C74.6394 8.76293 73.578 8.37 72.368 8.37V10.37C73.118 10.37 73.6165 10.5971 73.9777 10.9832L75.4382 9.61684ZM72.368 8.37C71.1579 8.37 70.0965 8.76293 69.2977 9.61684L70.7582 10.9832C71.1194 10.5971 71.618 10.37 72.368 10.37V8.37ZM69.2977 9.61684C68.4949 10.475 68.158 11.6194 68.158 12.91H70.158C70.158 11.9606 70.401 11.365 70.7582 10.9832L69.2977 9.61684ZM68.158 12.91V22H70.158V12.91H68.158ZM69.158 21H64.028V23H69.158V21ZM65.028 22V5.26H63.028V22H65.028ZM64.028 6.26H69.158V4.26H64.028V6.26ZM68.158 5.26V7.48H70.158V5.26H68.158ZM69.9762 8.05494C70.3896 7.46653 70.9514 6.99439 71.6887 6.64248L70.8272 4.83752C69.8046 5.32561 68.9663 6.01347 68.3398 6.90505L69.9762 8.05494ZM71.7052 6.63443C72.4307 6.27169 73.2647 6.08 74.228 6.08V4.08C72.9912 4.08 71.8453 4.32831 70.8108 4.84557L71.7052 6.63443ZM99.9328 14.86V15.86H100.824L100.926 14.9746L99.9328 14.86ZM88.3228 14.86V13.86H87.2429L87.3258 14.9367L88.3228 14.86ZM89.3128 17.26L88.6182 17.9794L88.6308 17.9916L88.6438 18.0033L89.3128 17.26ZM94.1728 16.45V15.45H93.5338L93.2653 16.0299L94.1728 16.45ZM99.6328 16.45L100.602 16.6967L100.919 15.45H99.6328V16.45ZM98.1028 19.42L97.3374 18.7763L97.3289 18.7868L98.1028 19.42ZM95.3728 21.49L95.7866 22.4004L95.3728 21.49ZM87.3028 21.19L86.823 22.0674L87.3028 21.19ZM84.3028 18.19L85.1776 17.7055L84.3028 18.19ZM84.2728 9.07L83.398 8.58546L83.3923 8.5959L84.2728 9.07ZM87.2728 6.07L87.7526 6.94737L87.2728 6.07ZM96.0028 6.04L95.5279 6.92002V6.92002L96.0028 6.04ZM98.9428 8.95L98.0686 9.43568L98.0746 9.44614L98.9428 8.95ZM94.7728 12.01V13.01H95.7728V12.01H94.7728ZM93.8728 9.91L94.5277 9.15431L93.8728 9.91ZM89.4328 9.88L88.7926 9.11178L88.7862 9.11713L88.7799 9.12259L89.4328 9.88ZM88.3528 12.01L87.3642 11.8596L87.1891 13.01H88.3528V12.01ZM99.0228 13.36C99.0228 13.7984 98.9954 14.2601 98.9394 14.7454L100.926 14.9746C100.99 14.4199 101.023 13.8816 101.023 13.36H99.0228ZM99.9328 13.86H88.3228V15.86H99.9328V13.86ZM87.3258 14.9367C87.4189 16.1472 87.8155 17.2043 88.6182 17.9794L90.0074 16.5406C89.6502 16.1957 89.3867 15.6528 89.3199 14.7833L87.3258 14.9367ZM88.6438 18.0033C89.4402 18.72 90.4134 19.07 91.5028 19.07V17.07C90.8722 17.07 90.3855 16.88 89.9818 16.5167L88.6438 18.0033ZM91.5028 19.07C92.2838 19.07 93.0153 18.9044 93.649 18.5199C94.2874 18.1326 94.7591 17.5638 95.0803 16.8701L93.2653 16.0299C93.0865 16.4162 92.8632 16.6574 92.6116 16.8101C92.3553 16.9656 92.0018 17.07 91.5028 17.07V19.07ZM94.1728 17.45H99.6328V15.45H94.1728V17.45ZM98.6637 16.2033C98.4214 17.1554 97.9818 18.0101 97.3374 18.7764L98.8682 20.0636C99.7038 19.0699 100.284 17.9446 100.602 16.6967L98.6637 16.2033ZM97.3289 18.7868C96.7121 19.5406 95.9283 20.1391 94.959 20.5796L95.7866 22.4004C97.0174 21.8409 98.0535 21.0594 98.8768 20.0532L97.3289 18.7868ZM94.959 20.5796C94.0044 21.0136 92.918 21.24 91.6828 21.24V23.24C93.1676 23.24 94.5412 22.9664 95.7866 22.4004L94.959 20.5796ZM91.6828 21.24C90.1893 21.24 88.898 20.9226 87.7826 20.3126L86.823 22.0674C88.2676 22.8574 89.8963 23.24 91.6828 23.24V21.24ZM87.7826 20.3126C86.6721 19.7053 85.8076 18.843 85.1776 17.7055L83.428 18.6745C84.238 20.137 85.3735 21.2747 86.823 22.0674L87.7826 20.3126ZM85.1776 17.7055C84.5528 16.5773 84.2228 15.2296 84.2228 13.63H82.2228C82.2228 15.5104 82.6129 17.2027 83.428 18.6745L85.1776 17.7055ZM84.2228 13.63C84.2228 12.0259 84.5447 10.6744 85.1533 9.5441L83.3923 8.5959C82.601 10.0656 82.2228 11.7541 82.2228 13.63H84.2228ZM85.1476 9.5545C85.7776 8.41696 86.6421 7.5547 87.7526 6.94737L86.793 5.19263C85.3435 5.9853 84.208 7.12304 83.398 8.5855L85.1476 9.5545ZM87.7526 6.94737C88.8662 6.33836 90.1671 6.02 91.6828 6.02V4.02C89.8785 4.02 88.2394 4.40164 86.793 5.19263L87.7526 6.94737ZM91.6828 6.02C93.1591 6.02 94.4321 6.32863 95.5279 6.92002L96.4777 5.15998C95.0536 4.39137 93.4465 4.02 91.6828 4.02V6.02ZM95.5279 6.92002C96.6187 7.50872 97.4607 8.34132 98.0687 9.43564L99.817 8.46436C99.0249 7.03868 97.9069 5.93128 96.4777 5.15998L95.5279 6.92002ZM98.0746 9.44614C98.6954 10.5327 99.0228 11.8263 99.0228 13.36H101.023C101.023 11.5337 100.63 9.88735 99.8111 8.45386L98.0746 9.44614ZM95.7728 12.01C95.7728 10.8753 95.3722 9.88619 94.5277 9.15431L93.2179 10.6657C93.5734 10.9738 93.7728 11.3847 93.7728 12.01H95.7728ZM94.5277 9.15431C93.7216 8.45567 92.7291 8.13 91.6228 8.13V10.13C92.3165 10.13 92.824 10.3243 93.2179 10.6657L94.5277 9.15431ZM91.6228 8.13C90.5542 8.13 89.5909 8.44658 88.7926 9.11178L90.073 10.6482C90.4748 10.3134 90.9715 10.13 91.6228 10.13V8.13ZM88.7799 9.12259C87.9824 9.81009 87.532 10.7566 87.3642 11.8596L89.3414 12.1604C89.4536 11.4234 89.7233 10.9499 90.0858 10.6374L88.7799 9.12259ZM88.3528 13.01H94.7728V11.01H88.3528V13.01ZM102.759 9.07L101.884 8.58546L101.879 8.5959L102.759 9.07ZM105.729 6.07L105.249 5.19261L105.243 5.19584L105.729 6.07ZM115.359 6.67L114.741 7.45634L114.747 7.46055L115.359 6.67ZM118.149 11.32V12.32H119.393L119.126 11.1051L118.149 11.32ZM112.689 11.32L111.748 11.6582L111.986 12.32H112.689V11.32ZM107.769 10.51L108.559 11.124L108.567 11.1134L107.769 10.51ZM107.769 16.78L106.972 17.3835L106.98 17.3939L107.769 16.78ZM112.689 15.94V14.94H111.986L111.748 15.6018L112.689 15.94ZM118.149 15.94L119.125 16.159L119.399 14.94H118.149V15.94ZM115.359 20.56L114.74 19.7748L115.359 20.56ZM105.729 21.19L105.243 22.0642L105.249 22.0674L105.729 21.19ZM102.759 18.19L101.879 18.6641L101.884 18.6745L102.759 18.19ZM102.709 13.63C102.709 12.0259 103.031 10.6744 103.64 9.5441L101.879 8.5959C101.087 10.0656 100.709 11.7541 100.709 13.63H102.709ZM103.634 9.5545C104.266 8.4129 105.124 7.55033 106.215 6.94416L105.243 5.19584C103.815 5.98967 102.692 7.1271 101.884 8.5855L103.634 9.5545ZM106.209 6.94737C107.324 6.3374 108.616 6.02 110.109 6.02V4.02C108.323 4.02 106.694 4.4026 105.249 5.19263L106.209 6.94737ZM110.109 6.02C112.027 6.02 113.548 6.51854 114.741 7.45632L115.977 5.88368C114.37 4.62146 112.391 4.02 110.109 4.02V6.02ZM114.747 7.46055C115.956 8.39728 116.775 9.72957 117.173 11.5349L119.126 11.1051C118.643 8.91043 117.602 7.14271 115.972 5.87945L114.747 7.46055ZM118.149 10.32H112.689V12.32H118.149V10.32ZM113.63 10.9818C113.348 10.1976 112.906 9.53197 112.26 9.06812C111.613 8.60254 110.845 8.4 110.019 8.4V10.4C110.513 10.4 110.85 10.5175 111.093 10.6919C111.338 10.868 111.57 11.1624 111.748 11.6582L113.63 10.9818ZM110.019 8.4C108.771 8.4 107.724 8.913 106.972 9.90656L108.567 11.1134C108.935 10.627 109.388 10.4 110.019 10.4V8.4ZM106.98 9.89606C106.231 10.8593 105.929 12.1521 105.929 13.63H107.929C107.929 12.3879 108.188 11.6007 108.558 11.1239L106.98 9.89606ZM105.929 13.63C105.929 15.1105 106.232 16.4055 106.972 17.3834L108.567 16.1766C108.187 15.6745 107.929 14.8695 107.929 13.63H105.929ZM106.98 17.3939C107.736 18.3661 108.782 18.86 110.019 18.86V16.86C109.377 16.86 108.922 16.6339 108.558 16.1661L106.98 17.3939ZM110.019 18.86C110.845 18.86 111.613 18.6575 112.26 18.1919C112.906 17.728 113.348 17.0624 113.63 16.2782L111.748 15.6018C111.57 16.0976 111.338 16.392 111.093 16.5681C110.85 16.7425 110.513 16.86 110.019 16.86V18.86ZM112.689 16.94H118.149V14.94H112.689V16.94ZM117.173 15.721C116.778 17.4833 115.959 18.8129 114.74 19.7748L115.978 21.3452C117.599 20.0671 118.64 18.3167 119.125 16.159L117.173 15.721ZM114.74 19.7748C113.522 20.7353 112 21.24 110.109 21.24V23.24C112.378 23.24 114.356 22.6247 115.978 21.3452L114.74 19.7748ZM110.109 21.24C108.616 21.24 107.324 20.9226 106.209 20.3126L105.249 22.0674C106.694 22.8574 108.323 23.24 110.109 23.24V21.24ZM106.215 20.3158C105.124 19.7097 104.266 18.8471 103.634 17.7055L101.884 18.6745C102.692 20.1329 103.815 21.2703 105.243 22.0642L106.215 20.3158ZM103.64 17.7159C103.031 16.5856 102.709 15.2341 102.709 13.63H100.709C100.709 15.5059 101.087 17.1944 101.879 18.6641L103.64 17.7159ZM130.223 17.65H131.223V16.65H130.223V17.65ZM130.223 22V23H131.223V22H130.223ZM123.263 20.65L122.601 21.399L122.609 21.4062L123.263 20.65ZM121.703 9.52H122.703V8.52H121.703V9.52ZM119.663 9.52H118.663V10.52H119.663V9.52ZM119.663 5.26V4.26H118.663V5.26H119.663ZM121.703 5.26V6.26H122.703V5.26H121.703ZM121.703 1.18V0.18H120.703V1.18H121.703ZM126.833 1.18H127.833V0.18H126.833V1.18ZM126.833 5.26H125.833V6.26H126.833V5.26ZM130.193 5.26H131.193V4.26H130.193V5.26ZM130.193 9.52V10.52H131.193V9.52H130.193ZM126.833 9.52V8.52H125.833V9.52H126.833ZM127.193 17.32L126.517 18.0572L127.193 17.32ZM129.223 17.65V22H131.223V17.65H129.223ZM130.223 21H127.613V23H130.223V21ZM127.613 21C125.908 21 124.72 20.5886 123.918 19.8938L122.609 21.4062C123.886 22.5114 125.598 23 127.613 23V21ZM123.926 19.901C123.187 19.2473 122.703 18.0937 122.703 16.18H120.703C120.703 18.3863 121.26 20.2127 122.601 21.399L123.926 19.901ZM122.703 16.18V9.52H120.703V16.18H122.703ZM121.703 8.52H119.663V10.52H121.703V8.52ZM120.663 9.52V5.26H118.663V9.52H120.663ZM119.663 6.26H121.703V4.26H119.663V6.26ZM122.703 5.26V1.18H120.703V5.26H122.703ZM121.703 2.18H126.833V0.18H121.703V2.18ZM125.833 1.18V5.26H127.833V1.18H125.833ZM126.833 6.26H130.193V4.26H126.833V6.26ZM129.193 5.26V9.52H131.193V5.26H129.193ZM130.193 8.52H126.833V10.52H130.193V8.52ZM125.833 9.52V16.24H127.833V9.52H125.833ZM125.833 16.24C125.833 16.8713 125.982 17.5663 126.517 18.0572L127.869 16.5828C127.894 16.6054 127.887 16.6144 127.872 16.5688C127.855 16.5173 127.833 16.4146 127.833 16.24H125.833ZM126.517 18.0572C127.036 18.5322 127.749 18.65 128.393 18.65V16.65C128.174 16.65 128.028 16.6279 127.938 16.6033C127.851 16.5791 127.844 16.5603 127.869 16.5828L126.517 18.0572ZM128.393 18.65H130.223V16.65H128.393V18.65ZM25.89 50.26L26.8553 50.5212L27.1966 49.26H25.89V50.26ZM21.36 67V68H22.1254L22.3253 67.2612L21.36 67ZM15.69 67L14.7183 67.2362L14.904 68H15.69V67ZM13.05 56.14L14.0217 55.9038L12.0802 55.8962L13.05 56.14ZM10.32 67V68H11.0997L11.2898 67.2438L10.32 67ZM4.68 67L3.71516 67.2628L3.91596 68H4.68V67ZM0.12 50.26V49.26H-1.18884L-0.844844 50.5228L0.12 50.26ZM5.25 50.26L6.23096 50.0658L6.07142 49.26H5.25V50.26ZM7.62 62.23L6.63904 62.4242L8.59335 62.4593L7.62 62.23ZM10.44 50.26V49.26H9.64821L9.46665 50.0307L10.44 50.26ZM15.87 50.26L16.8425 50.0273L16.6589 49.26H15.87V50.26ZM18.72 62.17L17.7475 62.4027L19.7012 62.3628L18.72 62.17ZM21.06 50.26V49.26H20.2374L20.0788 50.0672L21.06 50.26ZM24.9247 49.9988L20.3947 66.7388L22.3253 67.2612L26.8553 50.5212L24.9247 49.9988ZM21.36 66H15.69V68H21.36V66ZM16.6617 66.7638L14.0217 55.9038L12.0783 56.3762L14.7183 67.2362L16.6617 66.7638ZM12.0802 55.8962L9.35017 66.7562L11.2898 67.2438L14.0198 56.3838L12.0802 55.8962ZM10.32 66H4.68V68H10.32V66ZM5.64484 66.7372L1.08484 49.9972L-0.844844 50.5228L3.71516 67.2628L5.64484 66.7372ZM0.12 51.26H5.25V49.26H0.12V51.26ZM4.26904 50.4542L6.63904 62.4242L8.60096 62.0358L6.23096 50.0658L4.26904 50.4542ZM8.59335 62.4593L11.4134 50.4893L9.46665 50.0307L6.64665 62.0007L8.59335 62.4593ZM10.44 51.26H15.87V49.26H10.44V51.26ZM14.8975 50.4927L17.7475 62.4027L19.6925 61.9373L16.8425 50.0273L14.8975 50.4927ZM19.7012 62.3628L22.0412 50.4528L20.0788 50.0672L17.7388 61.9772L19.7012 62.3628ZM21.06 51.26H25.89V49.26H21.06V51.26ZM28.2063 47.74L27.5122 48.4598L27.5253 48.4724L27.5388 48.4846L28.2063 47.74ZM28.2063 43.78L28.8868 44.5128L28.8877 44.5119L28.2063 43.78ZM32.5863 43.78L31.8922 44.4998L31.9053 44.5124L31.9188 44.5246L32.5863 43.78ZM32.5863 47.74L33.2668 48.4728L33.2677 48.4719L32.5863 47.74ZM32.9763 50.26H33.9763V49.26H32.9763V50.26ZM32.9763 67V68H33.9763V67H32.9763ZM27.8463 67H26.8463V68H27.8463V67ZM27.8463 50.26V49.26H26.8463V50.26H27.8463ZM30.4263 47.52C29.7319 47.52 29.2422 47.3256 28.8739 46.9954L27.5388 48.4846C28.3305 49.1944 29.3207 49.52 30.4263 49.52V47.52ZM28.9005 47.0202C28.5365 46.6692 28.3663 46.2693 28.3663 45.76H26.3663C26.3663 46.8107 26.7562 47.7308 27.5122 48.4598L28.9005 47.0202ZM28.3663 45.76C28.3663 45.2234 28.5411 44.8338 28.8868 44.5128L27.5259 43.0472C26.7516 43.7662 26.3663 44.6966 26.3663 45.76H28.3663ZM28.8877 44.5119C29.2573 44.1678 29.7423 43.97 30.4263 43.97V41.97C29.3104 41.97 28.3154 42.3122 27.5249 43.0481L28.8877 44.5119ZM30.4263 43.97C31.0842 43.97 31.5435 44.1636 31.8922 44.4998L33.2805 43.0602C32.5092 42.3164 31.5284 41.97 30.4263 41.97V43.97ZM31.9188 44.5246C32.2808 44.8491 32.4563 45.2354 32.4563 45.76H34.4563C34.4563 44.6846 34.0519 43.7509 33.2539 43.0354L31.9188 44.5246ZM32.4563 45.76C32.4563 46.2574 32.2854 46.6538 31.9049 47.0081L33.2677 48.4719C34.0472 47.7462 34.4563 46.8226 34.4563 45.76H32.4563ZM31.9059 47.0072C31.5588 47.3295 31.0949 47.52 30.4263 47.52V49.52C31.5177 49.52 32.4938 49.1905 33.2668 48.4728L31.9059 47.0072ZM31.9763 50.26V67H33.9763V50.26H31.9763ZM32.9763 66H27.8463V68H32.9763V66ZM28.8463 67V50.26H26.8463V67H28.8463ZM27.8463 51.26H32.9763V49.26H27.8463V51.26ZM46.024 62.65H47.024V61.65H46.024V62.65ZM46.024 67V68H47.024V67H46.024ZM39.064 65.65L38.4014 66.399L38.4096 66.4062L39.064 65.65ZM37.504 54.52H38.504V53.52H37.504V54.52ZM35.464 54.52H34.464V55.52H35.464V54.52ZM35.464 50.26V49.26H34.464V50.26H35.464ZM37.504 50.26V51.26H38.504V50.26H37.504ZM37.504 46.18V45.18H36.504V46.18H37.504ZM42.634 46.18H43.634V45.18H42.634V46.18ZM42.634 50.26H41.634V51.26H42.634V50.26ZM45.994 50.26H46.994V49.26H45.994V50.26ZM45.994 54.52V55.52H46.994V54.52H45.994ZM42.634 54.52V53.52H41.634V54.52H42.634ZM42.994 62.32L42.3183 63.0572L42.994 62.32ZM45.024 62.65V67H47.024V62.65H45.024ZM46.024 66H43.414V68H46.024V66ZM43.414 66C41.7091 66 40.5211 65.5886 39.7184 64.8938L38.4096 66.4062C39.6868 67.5115 41.3989 68 43.414 68V66ZM39.7266 64.901C38.9875 64.2473 38.504 63.0937 38.504 61.18H36.504C36.504 63.3863 37.0604 65.2127 38.4014 66.399L39.7266 64.901ZM38.504 61.18V54.52H36.504V61.18H38.504ZM37.504 53.52H35.464V55.52H37.504V53.52ZM36.464 54.52V50.26H34.464V54.52H36.464ZM35.464 51.26H37.504V49.26H35.464V51.26ZM38.504 50.26V46.18H36.504V50.26H38.504ZM37.504 47.18H42.634V45.18H37.504V47.18ZM41.634 46.18V50.26H43.634V46.18H41.634ZM42.634 51.26H45.994V49.26H42.634V51.26ZM44.994 50.26V54.52H46.994V50.26H44.994ZM45.994 53.52H42.634V55.52H45.994V53.52ZM41.634 54.52V61.24H43.634V54.52H41.634ZM41.634 61.24C41.634 61.8713 41.7827 62.5663 42.3183 63.0572L43.6697 61.5828C43.6943 61.6054 43.6879 61.6144 43.6727 61.5688C43.6555 61.5173 43.634 61.4146 43.634 61.24H41.634ZM42.3183 63.0572C42.8365 63.5322 43.5497 63.65 44.194 63.65V61.65C43.9745 61.65 43.8286 61.6279 43.7391 61.6033C43.6513 61.5791 43.6452 61.5603 43.6697 61.5828L42.3183 63.0572ZM44.194 63.65H46.024V61.65H44.194V63.65ZM63.7915 52L63.0505 52.6715L63.0558 52.6773L63.7915 52ZM65.5315 67V68H66.5315V67H65.5315ZM60.4315 67H59.4315V68H60.4315V67ZM59.5615 55.3L58.8312 55.9832H58.8312L59.5615 55.3ZM54.8815 55.3L55.6118 55.9832L54.8815 55.3ZM54.0115 67V68H55.0115V67H54.0115ZM48.8815 67H47.8815V68H48.8815V67ZM48.8815 44.8V43.8H47.8815V44.8H48.8815ZM54.0115 44.8H55.0115V43.8H54.0115V44.8ZM54.0115 52.51H53.0115V55.6724L54.8297 53.0849L54.0115 52.51ZM56.1415 50.74L55.7023 49.8416L56.1415 50.74ZM59.1715 51.08C60.8442 51.08 62.1024 51.6253 63.0505 52.6715L64.5325 51.3285C63.1606 49.8147 61.3387 49.08 59.1715 49.08V51.08ZM63.0558 52.6773C64.0002 53.7032 64.5315 55.1743 64.5315 57.22H66.5315C66.5315 54.8257 65.9027 52.8168 64.5272 51.3227L63.0558 52.6773ZM64.5315 57.22V67H66.5315V57.22H64.5315ZM65.5315 66H60.4315V68H65.5315V66ZM61.4315 67V57.91H59.4315V67H61.4315ZM61.4315 57.91C61.4315 56.6194 61.0946 55.475 60.2918 54.6168L58.8312 55.9832C59.1884 56.365 59.4315 56.9606 59.4315 57.91H61.4315ZM60.2918 54.6168C59.4929 53.7629 58.4315 53.37 57.2215 53.37V55.37C57.9715 55.37 58.47 55.5971 58.8312 55.9832L60.2918 54.6168ZM57.2215 53.37C56.0115 53.37 54.95 53.7629 54.1512 54.6168L55.6118 55.9832C55.9729 55.5971 56.4715 55.37 57.2215 55.37V53.37ZM54.1512 54.6168C53.3484 55.475 53.0115 56.6194 53.0115 57.91H55.0115C55.0115 56.9606 55.2546 56.365 55.6118 55.9832L54.1512 54.6168ZM53.0115 57.91V67H55.0115V57.91H53.0115ZM54.0115 66H48.8815V68H54.0115V66ZM49.8815 67V44.8H47.8815V67H49.8815ZM48.8815 45.8H54.0115V43.8H48.8815V45.8ZM53.0115 44.8V52.51H55.0115V44.8H53.0115ZM54.8297 53.0849C55.2425 52.4974 55.8156 52.0124 56.5807 51.6384L55.7023 49.8416C54.6673 50.3476 53.8204 51.0426 53.1933 51.9351L54.8297 53.0849ZM56.5807 51.6384C57.3285 51.2728 58.1856 51.08 59.1715 51.08V49.08C57.9174 49.08 56.7544 49.3272 55.7023 49.8416L56.5807 51.6384ZM91.9837 50.26H92.9837V49.26H91.9837V50.26ZM91.9837 67V68H92.9837V67H91.9837ZM86.8538 67H85.8538V68H86.8538V67ZM86.8538 64.72H87.8538V61.5576L86.0356 64.1451L86.8538 64.72ZM84.7237 66.52L85.171 67.4145L85.1789 67.4104L84.7237 66.52ZM78.3938 66.34L77.8844 67.2006L77.891 67.2045L77.8976 67.2082L78.3938 66.34ZM76.1137 63.85L75.2193 64.2972L76.1137 63.85ZM75.3037 50.26V49.26H74.3037V50.26H75.3037ZM80.4037 50.26H81.4037V49.26H80.4037V50.26ZM81.2738 61.96L80.5435 62.6432L81.2738 61.96ZM86.8538 50.26V49.26H85.8538V50.26H86.8538ZM90.9837 50.26V67H92.9837V50.26H90.9837ZM91.9837 66H86.8538V68H91.9837V66ZM87.8538 67V64.72H85.8538V67H87.8538ZM86.0356 64.1451C85.6197 64.7369 85.041 65.2348 84.2686 65.6296L85.1789 67.4104C86.2065 66.8852 87.0478 66.1831 87.6719 65.2949L86.0356 64.1451ZM84.2765 65.6256C83.5486 65.9896 82.7239 66.18 81.7838 66.18V68.18C83.0036 68.18 84.1389 67.9304 85.171 67.4144L84.2765 65.6256ZM81.7838 66.18C80.654 66.18 79.6994 65.9344 78.8899 65.4718L77.8976 67.2082C79.0481 67.8656 80.3535 68.18 81.7838 68.18V66.18ZM78.9031 65.4794C78.0987 65.0033 77.4676 64.3217 77.0082 63.4028L75.2193 64.2972C75.8399 65.5383 76.7288 66.5167 77.8844 67.2006L78.9031 65.4794ZM77.0082 63.4028C76.5506 62.4877 76.3037 61.3768 76.3037 60.04H74.3037C74.3037 61.6232 74.5969 63.0523 75.2193 64.2972L77.0082 63.4028ZM76.3037 60.04V50.26H74.3037V60.04H76.3037ZM75.3037 51.26H80.4037V49.26H75.3037V51.26ZM79.4037 50.26V59.35H81.4037V50.26H79.4037ZM79.4037 59.35C79.4037 60.6406 79.7407 61.785 80.5435 62.6432L82.004 61.2768C81.6468 60.895 81.4037 60.2994 81.4037 59.35H79.4037ZM80.5435 62.6432C81.3423 63.4971 82.4037 63.89 83.6138 63.89V61.89C82.8638 61.89 82.3652 61.6629 82.004 61.2768L80.5435 62.6432ZM83.6138 63.89C84.837 63.89 85.9112 63.5013 86.714 62.6432L85.2535 61.2768C84.8963 61.6587 84.3905 61.89 83.6138 61.89V63.89ZM86.714 62.6432C87.5168 61.785 87.8538 60.6406 87.8538 59.35H85.8538C85.8538 60.2994 85.6107 60.895 85.2535 61.2768L86.714 62.6432ZM87.8538 59.35V50.26H85.8538V59.35H87.8538ZM86.8538 51.26H91.9837V49.26H86.8538V51.26ZM98.5786 66.49L98.9803 65.5742L98.5786 66.49ZM95.8786 64.45L95.0785 65.05L95.0853 65.0588L95.8786 64.45ZM94.7686 61.51V60.51H93.6918L93.7713 61.5839L94.7686 61.51ZM99.8386 61.51L100.833 61.4071L100.74 60.51H99.8386V61.51ZM100.649 62.92L101.249 62.12L100.649 62.92ZM103.889 63.1L104.465 63.917L104.474 63.9107L103.889 63.1ZM103.679 61.06L103.246 61.9615L103.261 61.9687L103.276 61.9753L103.679 61.06ZM101.249 60.28L101.491 59.3099L101.483 59.3079L101.476 59.3062L101.249 60.28ZM98.2486 59.41L97.8772 60.3385L97.8873 60.3425L97.8975 60.3463L98.2486 59.41ZM96.1786 57.94L95.4178 58.5889L95.4226 58.5946L95.4274 58.6001L96.1786 57.94ZM96.0886 52.6L95.2597 52.0405L95.2565 52.0453L96.0886 52.6ZM98.4286 50.71L98.0241 49.7954L98.0175 49.7984L98.4286 50.71ZM107.069 51.58L106.414 52.3357L106.42 52.341L107.069 51.58ZM109.169 55.72V56.72H110.279L110.163 55.6159L109.169 55.72ZM104.429 55.72L103.438 55.8566L103.557 56.72H104.429V55.72ZM103.649 54.34L103.019 55.1172L103.028 55.1244L103.037 55.1313L103.649 54.34ZM100.589 54.19L101.155 55.014L101.172 55.0024L101.189 54.99L100.589 54.19ZM100.859 56.2L100.426 57.1015L100.433 57.1048L100.44 57.108L100.859 56.2ZM103.259 56.92L103.508 55.9517L103.492 55.9475L103.476 55.9438L103.259 56.92ZM106.289 57.88L105.909 58.8052L105.919 58.8094L105.93 58.8133L106.289 57.88ZM108.329 59.38L107.559 60.018L107.568 60.03L107.579 60.0416L108.329 59.38ZM109.259 62.14H110.259V62.1314L110.258 62.1228L109.259 62.14ZM108.419 64.78L107.606 64.1968L107.603 64.2008L108.419 64.78ZM106.049 66.58L105.659 65.659L105.653 65.6618L106.049 66.58ZM102.479 66.24C101.133 66.24 99.9737 66.0099 98.9803 65.5742L98.1769 67.4058C99.4635 67.9701 100.904 68.24 102.479 68.24V66.24ZM98.9803 65.5742C97.9715 65.1318 97.215 64.5488 96.6719 63.8412L95.0853 65.0588C95.8622 66.0712 96.9057 66.8482 98.1769 67.4058L98.9803 65.5742ZM96.6786 63.85C96.1314 63.1204 95.8315 62.3223 95.7659 61.4361L93.7713 61.5839C93.8657 62.8577 94.3058 64.0196 95.0786 65.05L96.6786 63.85ZM94.7686 62.51H99.8386V60.51H94.7686V62.51ZM98.8439 61.6129C98.9335 62.4791 99.353 63.1983 100.049 63.72L101.249 62.12C100.984 61.9217 100.864 61.7009 100.833 61.4071L98.8439 61.6129ZM100.049 63.72C100.729 64.2306 101.54 64.46 102.419 64.46V62.46C101.898 62.46 101.528 62.3294 101.249 62.12L100.049 63.72ZM102.419 64.46C103.161 64.46 103.888 64.3245 104.465 63.917L103.312 62.283C103.209 62.3555 102.956 62.46 102.419 62.46V64.46ZM104.474 63.9107C105.061 63.4867 105.429 62.87 105.429 62.11H103.429C103.429 62.1537 103.42 62.17 103.416 62.1786C103.409 62.1909 103.384 62.231 103.303 62.2893L104.474 63.9107ZM105.429 62.11C105.429 61.6868 105.315 61.2703 105.055 60.9063C104.801 60.5504 104.452 60.3078 104.081 60.1447L103.276 61.9753C103.405 62.0322 103.432 62.0746 103.427 62.0687C103.427 62.0683 103.426 62.0669 103.425 62.065C103.424 62.0631 103.424 62.0621 103.424 62.0628C103.424 62.0635 103.429 62.0773 103.429 62.11H105.429ZM104.111 60.1585C103.515 59.8722 102.622 59.5926 101.491 59.3099L101.006 61.2501C102.115 61.5274 102.842 61.7678 103.246 61.9615L104.111 60.1585ZM101.476 59.3062C100.301 59.0321 99.3459 58.7535 98.5997 58.4737L97.8975 60.3463C98.7513 60.6665 99.796 60.9679 101.021 61.2538L101.476 59.3062ZM98.62 58.4815C97.9689 58.2211 97.4081 57.8242 96.9298 57.2799L95.4274 58.6001C96.109 59.3757 96.9283 59.9589 97.8772 60.3385L98.62 58.4815ZM96.9394 57.2911C96.5524 56.8373 96.3086 56.1793 96.3086 55.21H94.3086C94.3086 56.5207 94.6448 57.6827 95.4178 58.5889L96.9394 57.2911ZM96.3086 55.21C96.3086 54.4424 96.5129 53.7663 96.9206 53.1547L95.2565 52.0453C94.6243 52.9937 94.3086 54.0576 94.3086 55.21H96.3086ZM96.9174 53.1595C97.3379 52.5365 97.9615 52.0176 98.8397 51.6216L98.0175 49.7984C96.8557 50.3224 95.9193 51.0635 95.2597 52.0405L96.9174 53.1595ZM98.8331 51.6245C99.7182 51.2331 100.804 51.02 102.119 51.02V49.02C100.593 49.02 99.219 49.2669 98.0241 49.7955L98.8331 51.6245ZM102.119 51.02C104.057 51.02 105.447 51.4981 106.414 52.3357L107.724 50.8243C106.29 49.5819 104.38 49.02 102.119 49.02V51.02ZM106.42 52.341C107.428 53.2007 108.018 54.3373 108.174 55.8241L110.163 55.6159C109.959 53.6627 109.149 52.0393 107.717 50.819L106.42 52.341ZM109.169 54.72H104.429V56.72H109.169V54.72ZM105.419 55.5834C105.306 54.7591 104.919 54.058 104.26 53.5487L103.037 55.1313C103.258 55.302 103.392 55.5209 103.438 55.8566L105.419 55.5834ZM104.278 53.5628C103.633 53.0407 102.829 52.83 101.969 52.83V54.83C102.508 54.83 102.824 54.9593 103.019 55.1172L104.278 53.5628ZM101.969 52.83C101.255 52.83 100.549 52.9697 99.9886 53.39L101.189 54.99C101.268 54.9303 101.482 54.83 101.969 54.83V52.83ZM100.022 53.366C99.4211 53.7791 99.1086 54.4025 99.1086 55.12H101.109C101.109 55.0867 101.112 55.0666 101.114 55.0567C101.116 55.0474 101.118 55.0449 101.117 55.0461C101.117 55.0475 101.116 55.0468 101.12 55.0432C101.123 55.0391 101.134 55.0288 101.155 55.014L100.022 53.366ZM99.1086 55.12C99.1086 55.5436 99.2223 55.957 99.4747 56.3204C99.7213 56.6755 100.061 56.9262 100.426 57.1015L101.291 55.2985C101.157 55.2338 101.121 55.1845 101.117 55.1796C101.115 55.1768 101.115 55.1755 101.114 55.1722C101.113 55.1682 101.109 55.1525 101.109 55.12H99.1086ZM100.44 57.108C101.059 57.394 101.944 57.6522 103.042 57.8962L103.476 55.9438C102.413 55.7078 101.698 55.486 101.278 55.292L100.44 57.108ZM103.009 57.8883C104.225 58.2021 105.187 58.5089 105.909 58.8052L106.668 56.9548C105.83 56.6111 104.772 56.2779 103.508 55.9517L103.009 57.8883ZM105.93 58.8133C106.536 59.0465 107.078 59.4382 107.559 60.018L109.099 58.742C108.419 57.9218 107.601 57.3135 106.648 56.9467L105.93 58.8133ZM107.579 60.0416C107.982 60.4983 108.242 61.1669 108.259 62.1572L110.258 62.1228C110.236 60.7931 109.876 59.6217 109.078 58.7184L107.579 60.0416ZM108.259 62.14C108.259 62.9154 108.042 63.5905 107.606 64.1968L109.231 65.3632C109.916 64.4095 110.259 63.3246 110.259 62.14H108.259ZM107.603 64.2008C107.192 64.7805 106.564 65.276 105.659 65.659L106.438 67.501C107.613 67.004 108.566 66.2995 109.234 65.3592L107.603 64.2008ZM105.653 65.6618C104.782 66.0372 103.732 66.24 102.479 66.24V68.24C103.945 68.24 105.275 68.0028 106.445 67.4982L105.653 65.6618Z" fill="white"/>
</svg>
