<svg width="27" height="28" viewBox="0 0 27 28" fill="none" xmlns="http://www.w3.org/2000/svg">
<path d="M13.5 0.52002C6.04406 0.52002 0 6.56408 0 14.02C0 21.476 6.04406 27.52 13.5 27.52C20.9559 27.52 27 21.476 27 14.02C27 6.56408 20.9559 0.52002 13.5 0.52002ZM10.1953 19.6155H7.46156V10.818H10.1953V19.6155ZM8.81156 9.73799C7.94812 9.73799 7.38984 9.12627 7.38984 8.36971C7.38984 7.59768 7.965 7.00424 8.84672 7.00424C9.72844 7.00424 10.2684 7.59768 10.2853 8.36971C10.2853 9.12627 9.72844 9.73799 8.81156 9.73799ZM20.1797 19.6155H17.4459V14.74C17.4459 13.6052 17.0494 12.8346 16.0608 12.8346C15.3056 12.8346 14.857 13.3563 14.6588 13.8583C14.5856 14.0369 14.5673 14.29 14.5673 14.5417V19.6141H11.8322V13.6235C11.8322 12.5252 11.797 11.6069 11.7605 10.8166H14.1356L14.2608 12.0386H14.3156C14.6756 11.4649 15.5573 10.6183 17.0325 10.6183C18.8311 10.6183 20.1797 11.8235 20.1797 14.4138V19.6155Z" fill="#7D95D2"/>
</svg>
